<svg width="1600" height="1000" viewBox="0 0 1600 1000" fill="none" xmlns="http://www.w3.org/2000/svg">
  <defs>
    <linearGradient id="bg" x1="0" y1="0" x2="1600" y2="1000" gradientUnits="userSpaceOnUse">
      <stop stop-color="#0A1E33" />
      <stop offset="1" stop-color="#17456F" />
    </linearGradient>
    <linearGradient id="accent" x1="210" y1="136" x2="1432" y2="862" gradientUnits="userSpaceOnUse">
      <stop stop-color="#63B3FF" stop-opacity="0.9" />
      <stop offset="1" stop-color="#90F2D8" stop-opacity="0.68" />
    </linearGradient>
    <radialGradient id="glow" cx="0" cy="0" r="1" gradientUnits="userSpaceOnUse" gradientTransform="translate(1180 340) rotate(135) scale(460 420)">
      <stop stop-color="#84CEFF" stop-opacity="0.65" />
      <stop offset="1" stop-color="#84CEFF" stop-opacity="0" />
    </radialGradient>
  </defs>

  <rect width="1600" height="1000" fill="url(#bg)" />
  <rect x="0" y="0" width="1600" height="1000" fill="url(#glow)" />

  <path d="M-40 780C220 700 370 760 620 676C892 584 1120 452 1640 512" stroke="url(#accent)" stroke-opacity="0.6" stroke-width="3" />
  <path d="M-70 860C230 750 460 840 760 740C1020 654 1294 530 1660 562" stroke="#A6DDFF" stroke-opacity="0.34" stroke-width="2" stroke-dasharray="8 12" />
  <path d="M-120 650C130 600 360 650 588 598C832 542 1080 418 1680 454" stroke="#8ECBFF" stroke-opacity="0.25" stroke-width="2" />

  <g opacity="0.65">
    <circle cx="286" cy="596" r="7" fill="#A6DDFF" />
    <circle cx="618" cy="676" r="8" fill="#BDF3E3" />
    <circle cx="930" cy="586" r="7" fill="#A6DDFF" />
    <circle cx="1220" cy="500" r="8" fill="#BDF3E3" />
  </g>

  <g opacity="0.16">
    <path d="M180 150L1420 850" stroke="white" stroke-width="1" />
    <path d="M40 330L1280 1030" stroke="white" stroke-width="1" />
    <path d="M320 20L1560 720" stroke="white" stroke-width="1" />
  </g>
</svg>
